<svg width="600" height="600" viewBox="0 0 600 600" fill="none" xmlns="http://www.w3.org/2000/svg">
<g clip-path="url(#clip0_7031_58271)">
<path d="M510 67C292.999 67 110.55 214.317 58 414" stroke="#82BDF7" stroke-dasharray="12 12"/>
<path d="M555.875 271.278L396.613 271.067C387.965 271.06 376.89 278.058 371.88 286.702L204.616 575.458C199.606 584.102 202.564 591.12 211.212 591.128L370.474 591.338C379.122 591.345 390.197 584.347 395.207 575.703L562.464 286.935C567.474 278.291 564.516 271.273 555.868 271.266L555.875 271.278Z" fill="#82BDF7"/>
<path d="M374.486 572.732C369.989 575.328 365.137 576.888 360.737 576.879L201.474 576.669C196.814 576.663 193.213 574.869 191.345 571.634C189.18 567.884 189.711 562.692 192.791 557.384L360.061 268.609C365.535 259.157 377.316 251.768 386.877 251.771L546.139 251.982C550.799 251.987 554.4 253.781 556.268 257.016C558.433 260.766 557.902 265.959 554.822 271.266L387.565 560.034C384.6 565.145 379.793 569.668 374.499 572.725L374.486 572.732ZM375.622 260.099C371.002 262.766 366.724 266.706 364.231 271.021L196.962 559.797C194.814 563.52 194.265 567.04 195.524 569.221C196.769 571.378 199.454 571.838 201.483 571.843L360.745 572.054C368.48 572.065 378.849 565.458 383.382 557.629L550.639 268.861C552.799 265.13 553.336 261.617 552.077 259.436C550.831 257.279 548.147 256.819 546.118 256.814L386.856 256.603C383.387 256.596 379.372 257.934 375.61 260.106L375.622 260.099Z" fill="#E9F4FF"/>
<path d="M342.491 550.878L176.748 550.649C171.301 550.64 167.562 548.55 165.786 545.163L165.762 545.177L155.409 527.134L166.991 531.232C167.275 530.676 167.546 530.127 167.874 529.562L337.535 236.643C344.268 225.011 359.16 215.597 370.808 215.62L534.223 215.837C535.135 211.699 537.02 202.964 537.02 202.964L547.14 220.634C549.617 224.499 549.234 230.373 545.424 236.936L375.75 529.862C369.018 541.494 354.126 550.909 342.478 550.885L342.491 550.878Z" fill="#106DC9"/>
<path d="M249.837 545.527L259.379 545.525C260.653 545.524 261.074 544.497 260.345 543.235C259.616 541.973 257.995 540.948 256.733 540.941L247.191 540.943C245.917 540.944 245.497 541.971 246.225 543.233C246.954 544.495 248.575 545.52 249.837 545.527Z" fill="#173D7A"/>
<path d="M337.536 236.643C344.268 225.011 359.16 215.597 370.808 215.62L534.223 215.837C535.135 211.699 537.02 202.964 537.02 202.964L547.14 220.634C549.617 224.499 549.234 230.373 545.425 236.936L375.751 529.862C372.241 535.924 366.501 541.378 360.169 545.213L259.818 370.842L337.543 236.655L337.536 236.643Z" fill="#106DC9"/>
<path d="M526.14 197.677L360.404 197.46C348.763 197.449 333.871 206.863 327.132 218.483L157.465 511.422C150.733 523.054 154.71 532.489 166.339 532.508L332.075 532.725C343.716 532.736 358.607 523.322 365.347 511.702L535.021 218.776C541.753 207.144 537.776 197.708 526.147 197.689L526.14 197.677Z" fill="#B6DBFF"/>
<path d="M333.099 534.698L167.351 534.489C161.346 534.475 157.403 531.947 155.9 527.929C157.847 530.792 161.387 532.507 166.338 532.508L332.074 532.725C343.715 532.736 358.607 523.322 365.346 511.702L535.021 218.775C538.29 213.145 539.017 208.036 537.598 204.248C540.22 208.11 539.911 214.056 536.046 220.748L366.371 513.676C359.639 525.308 344.747 534.722 333.099 534.698V534.698Z" fill="#E9F4FF"/>
<path d="M518.203 206.033L358.941 205.821C350.292 205.814 339.218 212.812 334.208 221.456L166.954 510.224C161.944 518.868 164.902 525.886 173.55 525.894L332.812 526.106C341.46 526.113 352.535 519.115 357.544 510.471L524.799 221.703C529.808 213.059 526.851 206.041 518.203 206.033V206.033Z" fill="#E9F4FF"/>
<path d="M337.507 472.849L225.207 472.862L228.789 466.643L341.085 466.649L337.507 472.849Z" fill="#106DC9"/>
<path d="M270.722 492.515L213.859 492.517L217.442 486.298L274.305 486.297L270.722 492.515Z" fill="#106DC9"/>
<path d="M298.313 492.501L279.871 492.511L283.461 486.304L301.891 486.301L298.313 492.501Z" fill="#82BDF7"/>
<path d="M326.159 492.504L307.716 492.514L311.299 486.295L329.737 486.305L326.159 492.504Z" fill="#82BDF7"/>
<path d="M265.681 482.68L219.539 482.685L223.109 476.473L269.271 476.473L265.681 482.68Z" fill="#82BDF7"/>
<path d="M322.006 482.679L275.864 482.684L279.453 476.477L325.596 476.473L322.006 482.679Z" fill="#106DC9"/>
<path d="M271.721 454.766C270.573 456.769 267.767 458.389 265.446 458.389C263.126 458.389 262.204 456.764 263.359 454.774C264.507 452.771 267.313 451.151 269.634 451.151C271.954 451.152 272.876 452.776 271.721 454.766Z" fill="#82BDF7"/>
<path d="M284.217 454.758C283.069 456.761 280.263 458.381 277.942 458.381C275.634 458.373 274.7 456.756 275.855 454.766C277.003 452.763 279.809 451.143 282.13 451.143C284.438 451.15 285.372 452.768 284.217 454.758Z" fill="#82BDF7"/>
<path d="M296.72 454.762C295.572 456.765 292.765 458.385 290.445 458.384C288.137 458.377 287.203 456.76 288.358 454.769C289.505 452.767 292.312 451.147 294.632 451.147C296.953 451.147 297.875 452.772 296.72 454.762Z" fill="#106DC9"/>
<path d="M309.203 454.762C308.055 456.765 305.249 458.385 302.928 458.385C300.608 458.384 299.686 456.76 300.841 454.77C301.996 452.779 304.795 451.147 307.116 451.147C309.436 451.147 310.358 452.772 309.203 454.762Z" fill="#82BDF7"/>
<path d="M321.706 454.765C320.558 456.767 317.752 458.388 315.431 458.387C313.123 458.38 312.189 456.762 313.344 454.772C314.499 452.782 317.298 451.15 319.619 451.15C321.927 451.157 322.861 452.775 321.706 454.765Z" fill="#82BDF7"/>
<path d="M396.764 367.238L284.463 367.251L288.046 361.033L400.341 361.04L396.764 367.238Z" fill="#82BDF7"/>
<path d="M360.58 386.867L273.09 386.866L277.278 380.352L364.769 380.353L360.58 386.867Z" fill="#82BDF7"/>
<path d="M385.416 386.894L366.973 386.904L370.556 380.686L388.994 380.695L385.416 386.894Z" fill="#B6DBFF"/>
<path d="M324.938 377.07L278.795 377.075L282.366 370.864L328.528 370.864L324.938 377.07Z" fill="#B6DBFF"/>
<path d="M391.295 377.095L330.118 377.094L333.589 371.045L395.018 371.046L391.295 377.095Z" fill="#82BDF7"/>
<path d="M455.29 243.073L436.384 243.073L440.059 236.703L458.965 236.703L455.29 243.073Z" fill="#82BDF7"/>
<path d="M481.614 243.073L462.708 243.073L466.383 236.703L485.296 236.715L481.614 243.073Z" fill="#82BDF7"/>
<path d="M456.89 253.146L430.566 253.147L434.241 246.777L460.572 246.788L456.89 253.146Z" fill="#82BDF7"/>
<path d="M475.796 253.147L464.245 253.149L467.92 246.779L479.478 246.789L475.796 253.147Z" fill="#106DC9"/>
<path d="M369.346 414.759L257.9 414.753L259.382 412.198L370.821 412.191L369.346 414.759Z" fill="#82BDF7"/>
<path d="M294.654 416.148L257.09 416.152L260.18 410.806L297.744 410.802L294.654 416.148Z" fill="#106DC9"/>
<path d="M294.068 417.677L292.49 417.69L297.343 409.284L298.921 409.271L294.068 417.677Z" fill="#82BDF7"/>
<ellipse cx="9.13051" cy="11.8845" rx="9.13051" ry="11.8845" transform="matrix(0.848011 0.529978 -0.530007 0.847993 353.529 225.797)" fill="#106DC9"/>
<path d="M328.113 271.457L288.912 338.469H433.55L473.202 271.457H328.113Z" stroke="#82BDF7" stroke-width="4" stroke-linecap="round" stroke-linejoin="round"/>
<circle cx="123" cy="278" r="36" fill="#B6DBFF"/>
<circle cx="123" cy="278" r="31" fill="#FBFCFE"/>
<path fill-rule="evenodd" clip-rule="evenodd" d="M113.08 284.465C113.718 284.292 114.39 284.608 114.587 285.167C114.784 285.728 114.425 286.32 113.79 286.493C111.934 286.993 110.691 287.961 110.278 288.871C110.168 289.114 110.131 289.336 110.173 289.52C110.205 289.658 110.3 289.785 110.457 289.884C111.134 290.32 112.594 290.432 115.045 289.908C116.231 289.653 115.745 289.759 116.537 289.629C118.112 289.373 119.683 289.198 120.951 289.252C122.615 289.325 123.866 289.796 124.291 290.92C124.568 291.648 124.491 292.279 124.421 292.845C124.396 293.049 124.374 293.237 124.384 293.362C124.384 293.366 124.635 293.351 125.853 293.266C127.263 293.167 128.723 292.678 130.163 292.194C130.902 291.946 131.635 291.701 132.467 291.475C133.104 291.304 133.777 291.622 133.969 292.181C134.163 292.742 133.802 293.334 133.167 293.502C132.521 293.675 131.774 293.928 131.024 294.177C129.418 294.717 127.796 295.26 126.043 295.383C122.834 295.604 122.089 294.806 121.975 293.524C121.948 293.222 121.982 292.93 122.02 292.617C122.062 292.266 122.109 291.874 122.002 291.589C121.955 291.462 121.499 291.396 120.837 291.37C119.775 291.324 118.386 291.481 116.971 291.714C116.266 291.828 116.771 291.718 115.613 291.966C112.385 292.656 110.24 292.363 109.04 291.591C108.365 291.159 107.964 290.592 107.809 289.954C107.665 289.36 107.747 288.72 108.036 288.082C108.688 286.651 110.489 285.162 113.08 284.465Z" fill="#82BDF7"/>
<path d="M118.605 275.096L117.194 282.064L123.968 280.322M118.605 275.096L123.968 280.322M118.605 275.096L126.508 266.096L132.153 271.612L123.968 280.322M129.048 263.483L134.694 268.999L136.126 267.527C136.894 266.736 136.878 265.473 136.089 264.702L133.305 261.981C132.514 261.208 131.245 261.224 130.473 262.018L129.048 263.483Z" stroke="#106DC9" stroke-width="1.6" stroke-linecap="round" stroke-linejoin="round"/>
<path d="M107.273 337.18C107.273 338.466 107.034 339.542 106.555 340.406C106.076 341.266 105.38 341.914 104.469 342.352C103.557 342.784 102.458 343 101.172 343H98V331.578H101.516C102.698 331.578 103.719 331.792 104.578 332.219C105.438 332.641 106.102 333.268 106.57 334.102C107.039 334.93 107.273 335.956 107.273 337.18ZM105.32 337.234C105.32 336.297 105.172 335.526 104.875 334.922C104.583 334.318 104.151 333.87 103.578 333.578C103.01 333.281 102.31 333.133 101.477 333.133H99.875V341.43H101.203C102.583 341.43 103.615 341.078 104.297 340.375C104.979 339.672 105.32 338.625 105.32 337.234ZM112.992 334.188C113.763 334.188 114.424 334.346 114.977 334.664C115.529 334.982 115.953 335.432 116.25 336.016C116.547 336.599 116.695 337.297 116.695 338.109V339.094H110.922C110.943 339.932 111.167 340.578 111.594 341.031C112.026 341.484 112.63 341.711 113.406 341.711C113.958 341.711 114.453 341.659 114.891 341.555C115.333 341.445 115.789 341.286 116.258 341.078V342.57C115.826 342.773 115.385 342.922 114.938 343.016C114.49 343.109 113.953 343.156 113.328 343.156C112.479 343.156 111.732 342.992 111.086 342.664C110.445 342.331 109.943 341.836 109.578 341.18C109.219 340.523 109.039 339.708 109.039 338.734C109.039 337.766 109.203 336.943 109.531 336.266C109.859 335.589 110.32 335.073 110.914 334.719C111.508 334.365 112.201 334.188 112.992 334.188ZM112.992 335.57C112.414 335.57 111.945 335.758 111.586 336.133C111.232 336.508 111.023 337.057 110.961 337.781H114.898C114.893 337.349 114.82 336.966 114.68 336.633C114.544 336.299 114.336 336.039 114.055 335.852C113.779 335.664 113.424 335.57 112.992 335.57ZM124.578 340.531C124.578 341.099 124.44 341.578 124.164 341.969C123.888 342.359 123.484 342.656 122.953 342.859C122.427 343.057 121.781 343.156 121.016 343.156C120.411 343.156 119.891 343.112 119.453 343.023C119.021 342.94 118.612 342.81 118.227 342.633V341.047C118.638 341.24 119.099 341.406 119.609 341.547C120.125 341.688 120.612 341.758 121.07 341.758C121.674 341.758 122.109 341.664 122.375 341.477C122.641 341.284 122.773 341.029 122.773 340.711C122.773 340.523 122.719 340.357 122.609 340.211C122.505 340.06 122.307 339.906 122.016 339.75C121.729 339.589 121.307 339.396 120.75 339.172C120.203 338.953 119.742 338.734 119.367 338.516C118.992 338.297 118.708 338.034 118.516 337.727C118.323 337.414 118.227 337.016 118.227 336.531C118.227 335.766 118.529 335.185 119.133 334.789C119.742 334.388 120.547 334.188 121.547 334.188C122.078 334.188 122.578 334.242 123.047 334.352C123.521 334.456 123.984 334.609 124.438 334.812L123.859 336.195C123.469 336.023 123.076 335.883 122.68 335.773C122.289 335.659 121.891 335.602 121.484 335.602C121.01 335.602 120.648 335.674 120.398 335.82C120.154 335.966 120.031 336.174 120.031 336.445C120.031 336.648 120.091 336.82 120.211 336.961C120.331 337.102 120.536 337.242 120.828 337.383C121.125 337.523 121.536 337.698 122.062 337.906C122.578 338.104 123.023 338.312 123.398 338.531C123.779 338.745 124.07 339.008 124.273 339.32C124.477 339.633 124.578 340.036 124.578 340.531ZM128.398 334.352V343H126.562V334.352H128.398ZM127.492 331.039C127.773 331.039 128.016 331.115 128.219 331.266C128.427 331.417 128.531 331.677 128.531 332.047C128.531 332.411 128.427 332.672 128.219 332.828C128.016 332.979 127.773 333.055 127.492 333.055C127.201 333.055 126.953 332.979 126.75 332.828C126.552 332.672 126.453 332.411 126.453 332.047C126.453 331.677 126.552 331.417 126.75 331.266C126.953 331.115 127.201 331.039 127.492 331.039ZM133.5 346.844C132.328 346.844 131.43 346.633 130.805 346.211C130.18 345.789 129.867 345.198 129.867 344.438C129.867 343.906 130.034 343.456 130.367 343.086C130.701 342.721 131.177 342.469 131.797 342.328C131.562 342.224 131.359 342.062 131.188 341.844C131.021 341.62 130.938 341.372 130.938 341.102C130.938 340.779 131.029 340.503 131.211 340.273C131.393 340.044 131.667 339.823 132.031 339.609C131.578 339.417 131.214 339.104 130.938 338.672C130.667 338.234 130.531 337.721 130.531 337.133C130.531 336.508 130.664 335.977 130.93 335.539C131.195 335.096 131.583 334.76 132.094 334.531C132.604 334.297 133.221 334.18 133.945 334.18C134.102 334.18 134.271 334.19 134.453 334.211C134.641 334.227 134.812 334.247 134.969 334.273C135.13 334.294 135.253 334.318 135.336 334.344H138.328V335.367L136.859 335.641C137 335.839 137.112 336.065 137.195 336.32C137.279 336.57 137.32 336.844 137.32 337.141C137.32 338.036 137.01 338.742 136.391 339.258C135.776 339.768 134.927 340.023 133.844 340.023C133.583 340.013 133.331 339.992 133.086 339.961C132.898 340.076 132.755 340.203 132.656 340.344C132.557 340.479 132.508 340.633 132.508 340.805C132.508 340.945 132.557 341.06 132.656 341.148C132.755 341.232 132.901 341.294 133.094 341.336C133.292 341.378 133.531 341.398 133.812 341.398H135.305C136.253 341.398 136.977 341.599 137.477 342C137.977 342.401 138.227 342.99 138.227 343.766C138.227 344.75 137.82 345.508 137.008 346.039C136.195 346.576 135.026 346.844 133.5 346.844ZM133.57 345.555C134.211 345.555 134.75 345.492 135.188 345.367C135.625 345.242 135.956 345.062 136.18 344.828C136.404 344.599 136.516 344.326 136.516 344.008C136.516 343.727 136.445 343.51 136.305 343.359C136.164 343.208 135.953 343.104 135.672 343.047C135.391 342.99 135.042 342.961 134.625 342.961H133.266C132.927 342.961 132.628 343.013 132.367 343.117C132.107 343.227 131.904 343.383 131.758 343.586C131.617 343.789 131.547 344.034 131.547 344.32C131.547 344.716 131.721 345.021 132.07 345.234C132.424 345.448 132.924 345.555 133.57 345.555ZM133.93 338.82C134.466 338.82 134.865 338.674 135.125 338.383C135.385 338.086 135.516 337.669 135.516 337.133C135.516 336.549 135.38 336.112 135.109 335.82C134.844 335.529 134.448 335.383 133.922 335.383C133.406 335.383 133.013 335.531 132.742 335.828C132.477 336.125 132.344 336.565 132.344 337.148C132.344 337.674 132.477 338.086 132.742 338.383C133.013 338.674 133.409 338.82 133.93 338.82ZM144.414 334.188C145.388 334.188 146.146 334.44 146.688 334.945C147.234 335.445 147.508 336.25 147.508 337.359V343H145.672V337.703C145.672 337.031 145.534 336.529 145.258 336.195C144.982 335.857 144.555 335.688 143.977 335.688C143.138 335.688 142.555 335.945 142.227 336.461C141.904 336.977 141.742 337.724 141.742 338.703V343H139.906V334.352H141.336L141.594 335.523H141.695C141.883 335.221 142.115 334.974 142.391 334.781C142.672 334.583 142.984 334.435 143.328 334.336C143.677 334.237 144.039 334.188 144.414 334.188Z" fill="#333333"/>
<circle cx="240" cy="155" r="36" fill="#B6DBFF"/>
<circle cx="240" cy="155" r="31" fill="#FBFCFE"/>
<path d="M249.5 165L257 155.25L249.5 145.5" stroke="#106DC9" stroke-width="2" stroke-linecap="round" stroke-linejoin="round"/>
<path d="M244 141L236 168.5" stroke="#82BDF7" stroke-width="2" stroke-linecap="round" stroke-linejoin="round"/>
<path d="M230.5 165L223 155.25L230.5 145.5" stroke="#106DC9" stroke-width="2" stroke-linecap="round" stroke-linejoin="round"/>
<path d="M219.273 214.18C219.273 215.466 219.034 216.542 218.555 217.406C218.076 218.266 217.38 218.914 216.469 219.352C215.557 219.784 214.458 220 213.172 220H210V208.578H213.516C214.698 208.578 215.719 208.792 216.578 209.219C217.438 209.641 218.102 210.268 218.57 211.102C219.039 211.93 219.273 212.956 219.273 214.18ZM217.32 214.234C217.32 213.297 217.172 212.526 216.875 211.922C216.583 211.318 216.151 210.87 215.578 210.578C215.01 210.281 214.31 210.133 213.477 210.133H211.875V218.43H213.203C214.583 218.43 215.615 218.078 216.297 217.375C216.979 216.672 217.32 215.625 217.32 214.234ZM224.992 211.188C225.763 211.188 226.424 211.346 226.977 211.664C227.529 211.982 227.953 212.432 228.25 213.016C228.547 213.599 228.695 214.297 228.695 215.109V216.094H222.922C222.943 216.932 223.167 217.578 223.594 218.031C224.026 218.484 224.63 218.711 225.406 218.711C225.958 218.711 226.453 218.659 226.891 218.555C227.333 218.445 227.789 218.286 228.258 218.078V219.57C227.826 219.773 227.385 219.922 226.938 220.016C226.49 220.109 225.953 220.156 225.328 220.156C224.479 220.156 223.732 219.992 223.086 219.664C222.445 219.331 221.943 218.836 221.578 218.18C221.219 217.523 221.039 216.708 221.039 215.734C221.039 214.766 221.203 213.943 221.531 213.266C221.859 212.589 222.32 212.073 222.914 211.719C223.508 211.365 224.201 211.188 224.992 211.188ZM224.992 212.57C224.414 212.57 223.945 212.758 223.586 213.133C223.232 213.508 223.023 214.057 222.961 214.781H226.898C226.893 214.349 226.82 213.966 226.68 213.633C226.544 213.299 226.336 213.039 226.055 212.852C225.779 212.664 225.424 212.57 224.992 212.57ZM232.742 220L229.453 211.352H231.398L233.18 216.43C233.294 216.753 233.398 217.102 233.492 217.477C233.586 217.852 233.651 218.167 233.688 218.422H233.75C233.786 218.156 233.857 217.839 233.961 217.469C234.065 217.094 234.172 216.747 234.281 216.43L236.062 211.352H238L234.711 220H232.742ZM242.758 211.188C243.529 211.188 244.19 211.346 244.742 211.664C245.294 211.982 245.719 212.432 246.016 213.016C246.312 213.599 246.461 214.297 246.461 215.109V216.094H240.688C240.708 216.932 240.932 217.578 241.359 218.031C241.792 218.484 242.396 218.711 243.172 218.711C243.724 218.711 244.219 218.659 244.656 218.555C245.099 218.445 245.555 218.286 246.023 218.078V219.57C245.591 219.773 245.151 219.922 244.703 220.016C244.255 220.109 243.719 220.156 243.094 220.156C242.245 220.156 241.497 219.992 240.852 219.664C240.211 219.331 239.708 218.836 239.344 218.18C238.984 217.523 238.805 216.708 238.805 215.734C238.805 214.766 238.969 213.943 239.297 213.266C239.625 212.589 240.086 212.073 240.68 211.719C241.273 211.365 241.966 211.188 242.758 211.188ZM242.758 212.57C242.18 212.57 241.711 212.758 241.352 213.133C240.997 213.508 240.789 214.057 240.727 214.781H244.664C244.659 214.349 244.586 213.966 244.445 213.633C244.31 213.299 244.102 213.039 243.82 212.852C243.544 212.664 243.19 212.57 242.758 212.57ZM250.375 220H248.531V207.844H250.375V220ZM260.656 215.656C260.656 216.375 260.562 217.013 260.375 217.57C260.188 218.128 259.914 218.599 259.555 218.984C259.195 219.365 258.763 219.656 258.258 219.859C257.753 220.057 257.182 220.156 256.547 220.156C255.953 220.156 255.409 220.057 254.914 219.859C254.419 219.656 253.99 219.365 253.625 218.984C253.266 218.599 252.987 218.128 252.789 217.57C252.591 217.013 252.492 216.375 252.492 215.656C252.492 214.703 252.656 213.896 252.984 213.234C253.318 212.568 253.792 212.06 254.406 211.711C255.021 211.362 255.753 211.188 256.602 211.188C257.398 211.188 258.102 211.362 258.711 211.711C259.32 212.06 259.797 212.568 260.141 213.234C260.484 213.901 260.656 214.708 260.656 215.656ZM254.383 215.656C254.383 216.286 254.458 216.826 254.609 217.273C254.766 217.721 255.005 218.065 255.328 218.305C255.651 218.539 256.068 218.656 256.578 218.656C257.089 218.656 257.505 218.539 257.828 218.305C258.151 218.065 258.388 217.721 258.539 217.273C258.69 216.826 258.766 216.286 258.766 215.656C258.766 215.026 258.69 214.492 258.539 214.055C258.388 213.612 258.151 213.276 257.828 213.047C257.505 212.812 257.086 212.695 256.57 212.695C255.81 212.695 255.255 212.951 254.906 213.461C254.557 213.971 254.383 214.703 254.383 215.656ZM267.203 211.188C268.229 211.188 269.052 211.562 269.672 212.312C270.297 213.062 270.609 214.177 270.609 215.656C270.609 216.635 270.464 217.461 270.172 218.133C269.885 218.799 269.482 219.305 268.961 219.648C268.445 219.987 267.844 220.156 267.156 220.156C266.719 220.156 266.339 220.099 266.016 219.984C265.693 219.87 265.417 219.721 265.188 219.539C264.958 219.352 264.766 219.148 264.609 218.93H264.5C264.526 219.138 264.549 219.37 264.57 219.625C264.596 219.875 264.609 220.104 264.609 220.312V223.836H262.766V211.352H264.266L264.523 212.547H264.609C264.771 212.302 264.966 212.076 265.195 211.867C265.43 211.659 265.711 211.495 266.039 211.375C266.372 211.25 266.76 211.188 267.203 211.188ZM266.711 212.688C266.206 212.688 265.799 212.789 265.492 212.992C265.19 213.19 264.969 213.49 264.828 213.891C264.693 214.292 264.62 214.794 264.609 215.398V215.656C264.609 216.297 264.674 216.841 264.805 217.289C264.94 217.732 265.161 218.07 265.469 218.305C265.781 218.534 266.203 218.648 266.734 218.648C267.182 218.648 267.552 218.526 267.844 218.281C268.141 218.036 268.362 217.688 268.508 217.234C268.654 216.781 268.727 216.247 268.727 215.633C268.727 214.701 268.56 213.977 268.227 213.461C267.898 212.945 267.393 212.688 266.711 212.688Z" fill="#333333"/>
<circle cx="384" cy="84" r="36" fill="#B6DBFF"/>
<circle cx="384" cy="84" r="31" fill="#FBFCFE"/>
<path d="M381.892 93H371.5C370.672 93 370 92.3284 370 91.5V68.5C370 67.6716 370.672 67 371.5 67H391.532C392.361 67 393.032 67.6716 393.032 68.5V71.8941M393.032 82.2941V71.8941M393.032 71.8941H396.5C397.328 71.8941 398 72.5657 398 73.3941V82.2941" stroke="#106DC9" stroke-width="1.8" stroke-linecap="round" stroke-linejoin="round"/>
<path d="M374 73H389" stroke="#82BDF7" stroke-width="1.4" stroke-linecap="round"/>
<path d="M374 78H389" stroke="#82BDF7" stroke-width="1.4" stroke-linecap="round"/>
<path d="M374 83H380" stroke="#82BDF7" stroke-width="1.4" stroke-linecap="round"/>
<path d="M375 93V96.5C375 97.3284 375.672 98 376.5 98H382" stroke="#106DC9" stroke-width="1.8" stroke-linecap="round" stroke-linejoin="round"/>
<path d="M391.5 96C393.985 96 396 93.7614 396 91C396 88.2386 393.985 86 391.5 86C389.015 86 387 88.2386 387 91C387 93.7614 389.015 96 391.5 96Z" stroke="#82BDF7" stroke-width="1.4" stroke-linecap="round" stroke-linejoin="round"/>
<path d="M388.847 95.0066L388 101L391.5 99.0263L395 101L394.153 95" stroke="#82BDF7" stroke-width="1.4" stroke-linecap="round" stroke-linejoin="round"/>
<path d="M364.367 139.008C363.82 139.008 363.331 139.107 362.898 139.305C362.471 139.503 362.109 139.789 361.812 140.164C361.516 140.534 361.289 140.984 361.133 141.516C360.977 142.042 360.898 142.635 360.898 143.297C360.898 144.182 361.023 144.945 361.273 145.586C361.523 146.221 361.904 146.711 362.414 147.055C362.924 147.393 363.57 147.562 364.352 147.562C364.836 147.562 365.307 147.516 365.766 147.422C366.224 147.328 366.698 147.201 367.188 147.039V148.633C366.724 148.815 366.255 148.948 365.781 149.031C365.307 149.115 364.76 149.156 364.141 149.156C362.974 149.156 362.005 148.914 361.234 148.43C360.469 147.945 359.896 147.263 359.516 146.383C359.141 145.503 358.953 144.471 358.953 143.289C358.953 142.424 359.073 141.633 359.312 140.914C359.552 140.195 359.901 139.576 360.359 139.055C360.818 138.529 361.383 138.125 362.055 137.844C362.732 137.557 363.505 137.414 364.375 137.414C364.948 137.414 365.51 137.479 366.062 137.609C366.62 137.734 367.135 137.914 367.609 138.148L366.953 139.695C366.557 139.508 366.143 139.346 365.711 139.211C365.279 139.076 364.831 139.008 364.367 139.008ZM372.898 140.188C373.669 140.188 374.331 140.346 374.883 140.664C375.435 140.982 375.859 141.432 376.156 142.016C376.453 142.599 376.602 143.297 376.602 144.109V145.094H370.828C370.849 145.932 371.073 146.578 371.5 147.031C371.932 147.484 372.536 147.711 373.312 147.711C373.865 147.711 374.359 147.659 374.797 147.555C375.24 147.445 375.695 147.286 376.164 147.078V148.57C375.732 148.773 375.292 148.922 374.844 149.016C374.396 149.109 373.859 149.156 373.234 149.156C372.385 149.156 371.638 148.992 370.992 148.664C370.352 148.331 369.849 147.836 369.484 147.18C369.125 146.523 368.945 145.708 368.945 144.734C368.945 143.766 369.109 142.943 369.438 142.266C369.766 141.589 370.227 141.073 370.82 140.719C371.414 140.365 372.107 140.188 372.898 140.188ZM372.898 141.57C372.32 141.57 371.852 141.758 371.492 142.133C371.138 142.508 370.93 143.057 370.867 143.781H374.805C374.799 143.349 374.727 142.966 374.586 142.633C374.451 142.299 374.242 142.039 373.961 141.852C373.685 141.664 373.331 141.57 372.898 141.57ZM383.055 140.188C383.201 140.188 383.359 140.195 383.531 140.211C383.703 140.227 383.852 140.247 383.977 140.273L383.805 141.992C383.695 141.961 383.56 141.938 383.398 141.922C383.242 141.906 383.102 141.898 382.977 141.898C382.648 141.898 382.336 141.953 382.039 142.062C381.742 142.167 381.479 142.328 381.25 142.547C381.021 142.76 380.841 143.029 380.711 143.352C380.581 143.674 380.516 144.049 380.516 144.477V149H378.672V140.352H380.109L380.359 141.875H380.445C380.617 141.568 380.831 141.286 381.086 141.031C381.341 140.776 381.633 140.573 381.961 140.422C382.294 140.266 382.659 140.188 383.055 140.188ZM388.797 147.672C389.036 147.672 389.273 147.651 389.508 147.609C389.742 147.562 389.956 147.508 390.148 147.445V148.836C389.945 148.924 389.682 149 389.359 149.062C389.036 149.125 388.701 149.156 388.352 149.156C387.862 149.156 387.422 149.076 387.031 148.914C386.641 148.747 386.331 148.464 386.102 148.062C385.872 147.661 385.758 147.107 385.758 146.398V141.75H384.578V140.93L385.844 140.281L386.445 138.43H387.602V140.352H390.078V141.75H387.602V146.375C387.602 146.812 387.711 147.138 387.93 147.352C388.148 147.565 388.438 147.672 388.797 147.672ZM393.742 140.352V149H391.906V140.352H393.742ZM392.836 137.039C393.117 137.039 393.359 137.115 393.562 137.266C393.771 137.417 393.875 137.677 393.875 138.047C393.875 138.411 393.771 138.672 393.562 138.828C393.359 138.979 393.117 139.055 392.836 139.055C392.544 139.055 392.297 138.979 392.094 138.828C391.896 138.672 391.797 138.411 391.797 138.047C391.797 137.677 391.896 137.417 392.094 137.266C392.297 137.115 392.544 137.039 392.836 137.039ZM400.695 141.75H398.594V149H396.758V141.75H395.344V140.867L396.758 140.328V139.727C396.758 138.992 396.872 138.409 397.102 137.977C397.336 137.544 397.669 137.234 398.102 137.047C398.539 136.854 399.06 136.758 399.664 136.758C400.06 136.758 400.422 136.792 400.75 136.859C401.078 136.922 401.354 136.995 401.578 137.078L401.102 138.469C400.924 138.411 400.727 138.359 400.508 138.312C400.289 138.26 400.055 138.234 399.805 138.234C399.388 138.234 399.081 138.365 398.883 138.625C398.69 138.885 398.594 139.266 398.594 139.766V140.352H400.695V141.75ZM400.867 140.352H402.867L404.641 145.289C404.719 145.513 404.789 145.734 404.852 145.953C404.919 146.167 404.977 146.378 405.023 146.586C405.076 146.794 405.117 147.003 405.148 147.211H405.195C405.247 146.94 405.32 146.638 405.414 146.305C405.513 145.966 405.622 145.628 405.742 145.289L407.445 140.352H409.422L405.711 150.188C405.497 150.75 405.234 151.229 404.922 151.625C404.615 152.026 404.25 152.328 403.828 152.531C403.406 152.74 402.924 152.844 402.383 152.844C402.122 152.844 401.896 152.828 401.703 152.797C401.51 152.771 401.346 152.742 401.211 152.711V151.242C401.32 151.268 401.458 151.292 401.625 151.312C401.792 151.333 401.964 151.344 402.141 151.344C402.469 151.344 402.753 151.279 402.992 151.148C403.232 151.018 403.435 150.833 403.602 150.594C403.768 150.359 403.906 150.091 404.016 149.789L404.32 148.977L400.867 140.352Z" fill="#333333"/>
<circle cx="543" cy="67" r="36" fill="#B6DBFF"/>
<circle cx="543" cy="67" r="31" fill="#FBFCFE"/>
<path d="M549 76.63V66.9583C549 66.5343 548.886 66.1179 548.672 65.7508C548.457 65.3837 548.149 65.0788 547.778 64.8668L539.222 60.031C538.851 59.8188 538.429 59.707 538 59.707C537.571 59.707 537.149 59.8188 536.778 60.031L528.222 64.8668C527.851 65.0788 527.543 65.3837 527.328 65.7508C527.114 66.1179 527 66.5343 527 66.9583V76.63C527 77.054 527.114 77.4704 527.328 77.8375C527.543 78.2046 527.851 78.5095 528.222 78.7215L536.778 83.5573C537.149 83.7695 537.571 83.8813 538 83.8813C538.429 83.8813 538.851 83.7695 539.222 83.5573L547.778 78.7215C548.149 78.5095 548.457 78.2046 548.672 77.8375C548.886 77.4704 549 77.054 549 76.63Z" stroke="#106DC9" stroke-width="2" stroke-linecap="round" stroke-linejoin="round"/>
<path d="M527.5 65.752L538 71.2919L548.5 65.752" stroke="#106DC9" stroke-width="2" stroke-linecap="round" stroke-linejoin="round"/>
<path d="M538 83.8837V71.293" stroke="#106DC9" stroke-width="2" stroke-linecap="round" stroke-linejoin="round"/>
<path d="M550 60L558 52M558 52H550M558 52V60" stroke="#82BDF7" stroke-width="2" stroke-linecap="round" stroke-linejoin="round"/>
<path d="M526.773 126.18C526.773 127.466 526.534 128.542 526.055 129.406C525.576 130.266 524.88 130.914 523.969 131.352C523.057 131.784 521.958 132 520.672 132H517.5V120.578H521.016C522.198 120.578 523.219 120.792 524.078 121.219C524.938 121.641 525.602 122.268 526.07 123.102C526.539 123.93 526.773 124.956 526.773 126.18ZM524.82 126.234C524.82 125.297 524.672 124.526 524.375 123.922C524.083 123.318 523.651 122.87 523.078 122.578C522.51 122.281 521.81 122.133 520.977 122.133H519.375V130.43H520.703C522.083 130.43 523.115 130.078 523.797 129.375C524.479 128.672 524.82 127.625 524.82 126.234ZM532.492 123.188C533.263 123.188 533.924 123.346 534.477 123.664C535.029 123.982 535.453 124.432 535.75 125.016C536.047 125.599 536.195 126.297 536.195 127.109V128.094H530.422C530.443 128.932 530.667 129.578 531.094 130.031C531.526 130.484 532.13 130.711 532.906 130.711C533.458 130.711 533.953 130.659 534.391 130.555C534.833 130.445 535.289 130.286 535.758 130.078V131.57C535.326 131.773 534.885 131.922 534.438 132.016C533.99 132.109 533.453 132.156 532.828 132.156C531.979 132.156 531.232 131.992 530.586 131.664C529.945 131.331 529.443 130.836 529.078 130.18C528.719 129.523 528.539 128.708 528.539 127.734C528.539 126.766 528.703 125.943 529.031 125.266C529.359 124.589 529.82 124.073 530.414 123.719C531.008 123.365 531.701 123.188 532.492 123.188ZM532.492 124.57C531.914 124.57 531.445 124.758 531.086 125.133C530.732 125.508 530.523 126.057 530.461 126.781H534.398C534.393 126.349 534.32 125.966 534.18 125.633C534.044 125.299 533.836 125.039 533.555 124.852C533.279 124.664 532.924 124.57 532.492 124.57ZM542.703 123.188C543.729 123.188 544.552 123.562 545.172 124.312C545.797 125.062 546.109 126.177 546.109 127.656C546.109 128.635 545.964 129.461 545.672 130.133C545.385 130.799 544.982 131.305 544.461 131.648C543.945 131.987 543.344 132.156 542.656 132.156C542.219 132.156 541.839 132.099 541.516 131.984C541.193 131.87 540.917 131.721 540.688 131.539C540.458 131.352 540.266 131.148 540.109 130.93H540C540.026 131.138 540.049 131.37 540.07 131.625C540.096 131.875 540.109 132.104 540.109 132.312V135.836H538.266V123.352H539.766L540.023 124.547H540.109C540.271 124.302 540.466 124.076 540.695 123.867C540.93 123.659 541.211 123.495 541.539 123.375C541.872 123.25 542.26 123.188 542.703 123.188ZM542.211 124.688C541.706 124.688 541.299 124.789 540.992 124.992C540.69 125.19 540.469 125.49 540.328 125.891C540.193 126.292 540.12 126.794 540.109 127.398V127.656C540.109 128.297 540.174 128.841 540.305 129.289C540.44 129.732 540.661 130.07 540.969 130.305C541.281 130.534 541.703 130.648 542.234 130.648C542.682 130.648 543.052 130.526 543.344 130.281C543.641 130.036 543.862 129.688 544.008 129.234C544.154 128.781 544.227 128.247 544.227 127.633C544.227 126.701 544.06 125.977 543.727 125.461C543.398 124.945 542.893 124.688 542.211 124.688ZM550.078 132H548.234V119.844H550.078V132ZM560.359 127.656C560.359 128.375 560.266 129.013 560.078 129.57C559.891 130.128 559.617 130.599 559.258 130.984C558.898 131.365 558.466 131.656 557.961 131.859C557.456 132.057 556.885 132.156 556.25 132.156C555.656 132.156 555.112 132.057 554.617 131.859C554.122 131.656 553.693 131.365 553.328 130.984C552.969 130.599 552.69 130.128 552.492 129.57C552.294 129.013 552.195 128.375 552.195 127.656C552.195 126.703 552.359 125.896 552.688 125.234C553.021 124.568 553.495 124.06 554.109 123.711C554.724 123.362 555.456 123.188 556.305 123.188C557.102 123.188 557.805 123.362 558.414 123.711C559.023 124.06 559.5 124.568 559.844 125.234C560.188 125.901 560.359 126.708 560.359 127.656ZM554.086 127.656C554.086 128.286 554.161 128.826 554.312 129.273C554.469 129.721 554.708 130.065 555.031 130.305C555.354 130.539 555.771 130.656 556.281 130.656C556.792 130.656 557.208 130.539 557.531 130.305C557.854 130.065 558.091 129.721 558.242 129.273C558.393 128.826 558.469 128.286 558.469 127.656C558.469 127.026 558.393 126.492 558.242 126.055C558.091 125.612 557.854 125.276 557.531 125.047C557.208 124.812 556.789 124.695 556.273 124.695C555.513 124.695 554.958 124.951 554.609 125.461C554.26 125.971 554.086 126.703 554.086 127.656ZM561.164 123.352H563.164L564.938 128.289C565.016 128.513 565.086 128.734 565.148 128.953C565.216 129.167 565.273 129.378 565.32 129.586C565.372 129.794 565.414 130.003 565.445 130.211H565.492C565.544 129.94 565.617 129.638 565.711 129.305C565.81 128.966 565.919 128.628 566.039 128.289L567.742 123.352H569.719L566.008 133.188C565.794 133.75 565.531 134.229 565.219 134.625C564.911 135.026 564.547 135.328 564.125 135.531C563.703 135.74 563.221 135.844 562.68 135.844C562.419 135.844 562.193 135.828 562 135.797C561.807 135.771 561.643 135.742 561.508 135.711V134.242C561.617 134.268 561.755 134.292 561.922 134.312C562.089 134.333 562.26 134.344 562.438 134.344C562.766 134.344 563.049 134.279 563.289 134.148C563.529 134.018 563.732 133.833 563.898 133.594C564.065 133.359 564.203 133.091 564.312 132.789L564.617 131.977L561.164 123.352Z" fill="#333333"/>
<circle cx="54" cy="449" r="36" fill="#B6DBFF"/>
<circle cx="54" cy="449" r="31" fill="#FBFCFE"/>
<path d="M50.1801 457.5H40C39.1716 457.5 38.5 456.828 38.5 456V433.5C38.5 432.672 39.1716 432 40 432H59.621C60.4494 432 61.121 432.672 61.121 433.5V436.8M61.121 447V436.8M61.121 436.8H64.5C65.3284 436.8 66 437.472 66 438.3V447" stroke="#106DC9" stroke-width="1.8" stroke-linecap="round" stroke-linejoin="round"/>
<path d="M43 438H57" stroke="#82BDF7" stroke-width="1.4" stroke-linecap="round"/>
<path d="M43 443H57" stroke="#82BDF7" stroke-width="1.4" stroke-linecap="round"/>
<path d="M43 448H49" stroke="#82BDF7" stroke-width="1.4" stroke-linecap="round"/>
<path d="M44 457.5V461C44 461.828 44.6716 462.5 45.5 462.5H51" stroke="#106DC9" stroke-width="1.8" stroke-linecap="round" stroke-linejoin="round"/>
<path d="M65.9216 462.422L69.5003 466.001" stroke="#82BDF7" stroke-width="1.8" stroke-linecap="round"/>
<circle cx="60.9033" cy="458.031" r="5.47483" stroke="#82BDF7" stroke-width="1.8"/>
<path d="M32.5781 514L31.4609 510.828H27.0938L25.9766 514H24L28.25 502.531H30.3281L34.5703 514H32.5781ZM30.9766 509.219L29.8906 506.094C29.849 505.958 29.7891 505.768 29.7109 505.523C29.6328 505.273 29.5547 505.021 29.4766 504.766C29.3984 504.505 29.3333 504.286 29.2812 504.109C29.2292 504.323 29.1641 504.562 29.0859 504.828C29.013 505.089 28.9401 505.333 28.8672 505.562C28.7995 505.792 28.7474 505.969 28.7109 506.094L27.6172 509.219H30.9766ZM40.3984 505.188C41.3724 505.188 42.1302 505.44 42.6719 505.945C43.2188 506.445 43.4922 507.25 43.4922 508.359V514H41.6562V508.703C41.6562 508.031 41.5182 507.529 41.2422 507.195C40.9661 506.857 40.5391 506.688 39.9609 506.688C39.1224 506.688 38.5391 506.945 38.2109 507.461C37.888 507.977 37.7266 508.724 37.7266 509.703V514H35.8906V505.352H37.3203L37.5781 506.523H37.6797C37.8672 506.221 38.099 505.974 38.375 505.781C38.6562 505.583 38.9688 505.435 39.3125 505.336C39.6615 505.237 40.0234 505.188 40.3984 505.188ZM49.4531 505.188C50.5469 505.188 51.3724 505.43 51.9297 505.914C52.4922 506.398 52.7734 507.154 52.7734 508.18V514H51.4688L51.1172 512.773H51.0547C50.8099 513.086 50.5573 513.344 50.2969 513.547C50.0365 513.75 49.7344 513.901 49.3906 514C49.0521 514.104 48.638 514.156 48.1484 514.156C47.6328 514.156 47.1719 514.062 46.7656 513.875C46.3594 513.682 46.0391 513.391 45.8047 513C45.5703 512.609 45.4531 512.115 45.4531 511.516C45.4531 510.625 45.7839 509.956 46.4453 509.508C47.112 509.06 48.1172 508.812 49.4609 508.766L50.9609 508.711V508.258C50.9609 507.659 50.8203 507.232 50.5391 506.977C50.263 506.721 49.8724 506.594 49.3672 506.594C48.9349 506.594 48.5156 506.656 48.1094 506.781C47.7031 506.906 47.3073 507.06 46.9219 507.242L46.3281 505.945C46.75 505.721 47.2292 505.539 47.7656 505.398C48.3073 505.258 48.8698 505.188 49.4531 505.188ZM50.9531 509.867L49.8359 509.906C48.9193 509.938 48.276 510.094 47.9062 510.375C47.5365 510.656 47.3516 511.042 47.3516 511.531C47.3516 511.958 47.4792 512.271 47.7344 512.469C47.9896 512.661 48.3255 512.758 48.7422 512.758C49.3776 512.758 49.9036 512.578 50.3203 512.219C50.7422 511.854 50.9531 511.32 50.9531 510.617V509.867ZM57.1875 514H55.3438V501.844H57.1875V514ZM58.5078 505.352H60.5078L62.2812 510.289C62.3594 510.513 62.4297 510.734 62.4922 510.953C62.5599 511.167 62.6172 511.378 62.6641 511.586C62.7161 511.794 62.7578 512.003 62.7891 512.211H62.8359C62.888 511.94 62.9609 511.638 63.0547 511.305C63.1536 510.966 63.263 510.628 63.3828 510.289L65.0859 505.352H67.0625L63.3516 515.188C63.138 515.75 62.875 516.229 62.5625 516.625C62.2552 517.026 61.8906 517.328 61.4688 517.531C61.0469 517.74 60.5651 517.844 60.0234 517.844C59.763 517.844 59.5365 517.828 59.3438 517.797C59.151 517.771 58.987 517.742 58.8516 517.711V516.242C58.9609 516.268 59.099 516.292 59.2656 516.312C59.4323 516.333 59.6042 516.344 59.7812 516.344C60.1094 516.344 60.3932 516.279 60.6328 516.148C60.8724 516.018 61.0755 515.833 61.2422 515.594C61.4089 515.359 61.5469 515.091 61.6562 514.789L61.9609 513.977L58.5078 505.352ZM74.1641 514H67.5938V512.867L71.9609 506.766H67.8594V505.352H74.0391V506.602L69.7578 512.586H74.1641V514ZM79.4766 505.188C80.2474 505.188 80.9089 505.346 81.4609 505.664C82.013 505.982 82.4375 506.432 82.7344 507.016C83.0312 507.599 83.1797 508.297 83.1797 509.109V510.094H77.4062C77.4271 510.932 77.651 511.578 78.0781 512.031C78.5104 512.484 79.1146 512.711 79.8906 512.711C80.4427 512.711 80.9375 512.659 81.375 512.555C81.8177 512.445 82.2734 512.286 82.7422 512.078V513.57C82.3099 513.773 81.8698 513.922 81.4219 514.016C80.974 514.109 80.4375 514.156 79.8125 514.156C78.9635 514.156 78.2161 513.992 77.5703 513.664C76.9297 513.331 76.4271 512.836 76.0625 512.18C75.7031 511.523 75.5234 510.708 75.5234 509.734C75.5234 508.766 75.6875 507.943 76.0156 507.266C76.3438 506.589 76.8047 506.073 77.3984 505.719C77.9922 505.365 78.6849 505.188 79.4766 505.188ZM79.4766 506.57C78.8984 506.57 78.4297 506.758 78.0703 507.133C77.7161 507.508 77.5078 508.057 77.4453 508.781H81.3828C81.3776 508.349 81.3047 507.966 81.1641 507.633C81.0286 507.299 80.8203 507.039 80.5391 506.852C80.263 506.664 79.9089 506.57 79.4766 506.57Z" fill="#333333"/>
</g>
<defs>
<clipPath id="clip0_7031_58271">
<rect width="600" height="600" fill="white"/>
</clipPath>
</defs>
</svg>
